<?xml version="1.0" ?>
<mxfile host="65bd71144e">
	<diagram id="RFndyrCF2-3MIdXtw8gX" name="Page-1">
		<mxGraphModel dx="422" dy="816" grid="1" gridSize="10" guides="1" tooltips="1" connect="1" arrows="1" fold="1" page="1" pageScale="1" pageWidth="850" pageHeight="1100" math="0" shadow="0">
			<root>
				<mxCell id="0"/>
				<mxCell id="1" parent="0"/>
				<mxCell id="5750122640" value="&lt;b&gt;Module&lt;/b&gt;" style="rounded=1;whiteSpace=wrap;html=1;fillColor=#CC99FF;strokeColor=#000000;" parent="1" vertex="1">
					<mxGeometry x="745.02" y="0.0" width="120" height="120" as="geometry"/>
				</mxCell>
				<mxCell id="5750122448" value="&lt;b&gt;FunctionDef&lt;/b&gt;&lt;br&gt;name: main&lt;br&gt;lineno: 1&lt;br&gt;col_offset: 0&lt;br&gt;end_lineno: 5&lt;br&gt;end_col_offset: 12" style="rounded=1;whiteSpace=wrap;html=1;fillColor=#66B2FF;strokeColor=#000000;" parent="1" vertex="1">
					<mxGeometry x="745.02" y="144.0" width="120" height="120" as="geometry"/>
				</mxCell>
				<mxCell id="5750122304" value="&lt;b&gt;arguments&lt;/b&gt;" style="rounded=1;whiteSpace=wrap;html=1;fillColor=#E6E6E6;strokeColor=#000000;" parent="1" vertex="1">
					<mxGeometry x="915.02" y="288.0" width="120" height="120" as="geometry"/>
				</mxCell>
				<mxCell id="5750122208" value="&lt;b&gt;Assign&lt;/b&gt;&lt;br&gt;lineno: 2&lt;br&gt;col_offset: 4&lt;br&gt;end_lineno: 2&lt;br&gt;end_col_offset: 9" style="rounded=1;whiteSpace=wrap;html=1;fillColor=#D6FFC9;strokeColor=#000000;" parent="1" vertex="1">
					<mxGeometry x="745.02" y="288.0" width="120" height="120" as="geometry"/>
				</mxCell>
				<mxCell id="5750122016" value="&lt;b&gt;Name&lt;/b&gt;&lt;br&gt;id: y&lt;br&gt;lineno: 2&lt;br&gt;col_offset: 4&lt;br&gt;end_lineno: 2&lt;br&gt;end_col_offset: 5" style="rounded=1;whiteSpace=wrap;html=1;fillColor=#CCE5FF;strokeColor=#000000;" parent="1" vertex="1">
					<mxGeometry x="745.02" y="432.0" width="120" height="120" as="geometry"/>
				</mxCell>
				<mxCell id="5750121872" value="&lt;b&gt;Store&lt;/b&gt;" style="rounded=1;whiteSpace=wrap;html=1;fillColor=#E6E6E6;strokeColor=#000000;" parent="1" vertex="1">
					<mxGeometry x="675.02" y="720.0" width="120" height="120" as="geometry"/>
				</mxCell>
				<mxCell id="5750122112" value="&lt;b&gt;Constant&lt;/b&gt;&lt;br&gt;value: 2&lt;br&gt;lineno: 2&lt;br&gt;col_offset: 8&lt;br&gt;end_lineno: 2&lt;br&gt;end_col_offset: 9" style="rounded=1;whiteSpace=wrap;html=1;fillColor=#FFFFFF;strokeColor=#000000;" parent="1" vertex="1">
					<mxGeometry x="877.02" y="432.0" width="120" height="120" as="geometry"/>
				</mxCell>
				<mxCell id="5750697184" value="&lt;b&gt;FunctionDef&lt;/b&gt;&lt;br&gt;name: extracted_function" style="rounded=1;whiteSpace=wrap;html=1;fillColor=#66B2FF;strokeColor=#000000;" parent="1" vertex="1">
					<mxGeometry x="481.02" y="288.0" width="120" height="120" as="geometry"/>
				</mxCell>
				<mxCell id="5750697232" value="&lt;b&gt;arguments&lt;/b&gt;" style="rounded=1;whiteSpace=wrap;html=1;fillColor=#E6E6E6;strokeColor=#000000;" parent="1" vertex="1">
					<mxGeometry x="613.02" y="432.0" width="120" height="120" as="geometry"/>
				</mxCell>
				<mxCell id="5750697136" value="&lt;b&gt;arg&lt;/b&gt;&lt;br&gt;arg: y" style="rounded=1;whiteSpace=wrap;html=1;fillColor=#E6E6E6;strokeColor=#000000;" parent="1" vertex="1">
					<mxGeometry x="745.02" y="576.0" width="120" height="120" as="geometry"/>
				</mxCell>
				<mxCell id="5750122064" value="&lt;b&gt;Assign&lt;/b&gt;&lt;br&gt;lineno: 3&lt;br&gt;col_offset: 4&lt;br&gt;end_lineno: 3&lt;br&gt;end_col_offset: 9" style="rounded=1;whiteSpace=wrap;html=1;fillColor=#D6FFC9;strokeColor=#000000;" parent="1" vertex="1">
					<mxGeometry x="481.02" y="432.0" width="120" height="120" as="geometry"/>
				</mxCell>
				<mxCell id="5750121776" value="&lt;b&gt;Name&lt;/b&gt;&lt;br&gt;id: x&lt;br&gt;lineno: 3&lt;br&gt;col_offset: 4&lt;br&gt;end_lineno: 3&lt;br&gt;end_col_offset: 5" style="rounded=1;whiteSpace=wrap;html=1;fillColor=#CCE5FF;strokeColor=#000000;" parent="1" vertex="1">
					<mxGeometry x="613.02" y="576.0" width="120" height="120" as="geometry"/>
				</mxCell>
				<mxCell id="5750121920" value="&lt;b&gt;Constant&lt;/b&gt;&lt;br&gt;value: 2&lt;br&gt;lineno: 3&lt;br&gt;col_offset: 8&lt;br&gt;end_lineno: 3&lt;br&gt;end_col_offset: 9" style="rounded=1;whiteSpace=wrap;html=1;fillColor=#FFFFFF;strokeColor=#000000;" parent="1" vertex="1">
					<mxGeometry x="481.02" y="576.0" width="120" height="120" as="geometry"/>
				</mxCell>
				<mxCell id="5750121968" value="&lt;b&gt;Assign&lt;/b&gt;&lt;br&gt;lineno: 4&lt;br&gt;col_offset: 4&lt;br&gt;end_lineno: 4&lt;br&gt;end_col_offset: 13" style="rounded=1;whiteSpace=wrap;html=1;fillColor=#D6FFC9;strokeColor=#000000;" parent="1" vertex="1">
					<mxGeometry x="349.02" y="432.0" width="120" height="120" as="geometry"/>
				</mxCell>
				<mxCell id="5750121584" value="&lt;b&gt;Name&lt;/b&gt;&lt;br&gt;id: z&lt;br&gt;lineno: 4&lt;br&gt;col_offset: 4&lt;br&gt;end_lineno: 4&lt;br&gt;end_col_offset: 5" style="rounded=1;whiteSpace=wrap;html=1;fillColor=#CCE5FF;strokeColor=#000000;" parent="1" vertex="1">
					<mxGeometry x="349.02" y="576.0" width="120" height="120" as="geometry"/>
				</mxCell>
				<mxCell id="5750121824" value="&lt;b&gt;BinOp&lt;/b&gt;&lt;br&gt;lineno: 4&lt;br&gt;col_offset: 8&lt;br&gt;end_lineno: 4&lt;br&gt;end_col_offset: 13" style="rounded=1;whiteSpace=wrap;html=1;fillColor=#CCCCFF;strokeColor=#000000;" parent="1" vertex="1">
					<mxGeometry x="217.01999999999998" y="576.0" width="120" height="120" as="geometry"/>
				</mxCell>
				<mxCell id="5750121248" value="&lt;b&gt;Name&lt;/b&gt;&lt;br&gt;id: x&lt;br&gt;lineno: 4&lt;br&gt;col_offset: 8&lt;br&gt;end_lineno: 4&lt;br&gt;end_col_offset: 9" style="rounded=1;whiteSpace=wrap;html=1;fillColor=#CCE5FF;strokeColor=#000000;" parent="1" vertex="1">
					<mxGeometry x="528.02" y="720.0" width="120" height="120" as="geometry"/>
				</mxCell>
				<mxCell id="5750121200" value="&lt;b&gt;Load&lt;/b&gt;" style="rounded=1;whiteSpace=wrap;html=1;fillColor=#E6E6E6;strokeColor=#000000;" parent="1" vertex="1">
					<mxGeometry x="396.02" y="864.0" width="120" height="120" as="geometry"/>
				</mxCell>
				<mxCell id="5750127104" value="&lt;b&gt;Add&lt;/b&gt;" style="rounded=1;whiteSpace=wrap;html=1;fillColor=#E6E6E6;strokeColor=#000000;" parent="1" vertex="1">
					<mxGeometry x="396.02" y="720.0" width="120" height="120" as="geometry"/>
				</mxCell>
				<mxCell id="5750121296" value="&lt;b&gt;Name&lt;/b&gt;&lt;br&gt;id: y&lt;br&gt;lineno: 4&lt;br&gt;col_offset: 12&lt;br&gt;end_lineno: 4&lt;br&gt;end_col_offset: 13" style="rounded=1;whiteSpace=wrap;html=1;fillColor=#CCE5FF;strokeColor=#000000;" parent="1" vertex="1">
					<mxGeometry x="264.02" y="720.0" width="120" height="120" as="geometry"/>
				</mxCell>
				<mxCell id="5750697520" value="&lt;b&gt;Return&lt;/b&gt;" style="rounded=1;whiteSpace=wrap;html=1;fillColor=#D6FFC9;strokeColor=#000000;" parent="1" vertex="1">
					<mxGeometry x="174.01999999999998" y="432.0" width="120" height="120" as="geometry"/>
				</mxCell>
				<mxCell id="5750697472" value="&lt;b&gt;Name&lt;/b&gt;&lt;br&gt;id: z" style="rounded=1;whiteSpace=wrap;html=1;fillColor=#CCE5FF;strokeColor=#000000;" parent="1" vertex="1">
					<mxGeometry x="132.01999999999998" y="720.0" width="120" height="120" as="geometry"/>
				</mxCell>
				<mxCell id="5750697616" value="&lt;b&gt;Assign&lt;/b&gt;" style="rounded=1;whiteSpace=wrap;html=1;fillColor=#D6FFC9;strokeColor=#000000;" parent="1" vertex="1">
					<mxGeometry x="1009.019" y="432.0" width="120" height="120" as="geometry"/>
				</mxCell>
				<mxCell id="5750697568" value="&lt;b&gt;Name&lt;/b&gt;&lt;br&gt;id: z" style="rounded=1;whiteSpace=wrap;html=1;fillColor=#CCE5FF;strokeColor=#000000;" parent="1" vertex="1">
					<mxGeometry x="915.02" y="576.0" width="120" height="120" as="geometry"/>
				</mxCell>
				<mxCell id="5750697088" value="&lt;b&gt;Call&lt;/b&gt;" style="rounded=1;whiteSpace=wrap;html=1;fillColor=#FFCCFF;strokeColor=#000000;" parent="1" vertex="1">
					<mxGeometry x="1047.019" y="576.0" width="120" height="120" as="geometry"/>
				</mxCell>
				<mxCell id="5750697040" value="&lt;b&gt;Name&lt;/b&gt;&lt;br&gt;id: extracted_function" style="rounded=1;whiteSpace=wrap;html=1;fillColor=#CCE5FF;strokeColor=#000000;" parent="1" vertex="1">
					<mxGeometry x="1031.019" y="720.0" width="120" height="120" as="geometry"/>
				</mxCell>
				<mxCell id="5750697424" value="&lt;b&gt;Name&lt;/b&gt;&lt;br&gt;id: y" style="rounded=1;whiteSpace=wrap;html=1;fillColor=#CCE5FF;strokeColor=#000000;" parent="1" vertex="1">
					<mxGeometry x="838.02" y="720.0" width="120" height="120" as="geometry"/>
				</mxCell>
				<mxCell id="5750121536" value="&lt;b&gt;Return&lt;/b&gt;&lt;br&gt;lineno: 5&lt;br&gt;col_offset: 4&lt;br&gt;end_lineno: 5&lt;br&gt;end_col_offset: 12" style="rounded=1;whiteSpace=wrap;html=1;fillColor=#D6FFC9;strokeColor=#000000;" parent="1" vertex="1">
					<mxGeometry x="175.01999999999998" y="288.0" width="120" height="120" as="geometry"/>
				</mxCell>
				<mxCell id="5750121440" value="&lt;b&gt;Name&lt;/b&gt;&lt;br&gt;id: z&lt;br&gt;lineno: 5&lt;br&gt;col_offset: 11&lt;br&gt;end_lineno: 5&lt;br&gt;end_col_offset: 12" style="rounded=1;whiteSpace=wrap;html=1;fillColor=#CCE5FF;strokeColor=#000000;" parent="1" vertex="1">
					<mxGeometry x="0.0" y="720.0" width="120" height="120" as="geometry"/>
				</mxCell>
				<mxCell id="5750122640_5750122448" value="['body', 0]" style="endArrow=classic;html=1;" parent="1" source="5750122640" target="5750122448" edge="1">
					<mxGeometry width="50" height="50" relative="1" as="geometry">
						<mxPoint x="400" y="440" as="sourcePoint"/>
						<mxPoint x="450" y="390" as="targetPoint"/>
					</mxGeometry>
				</mxCell>
				<mxCell id="5750122448_5750122304" value="['args']" style="endArrow=classic;html=1;" parent="1" source="5750122448" target="5750122304" edge="1">
					<mxGeometry width="50" height="50" relative="1" as="geometry">
						<mxPoint x="400" y="440" as="sourcePoint"/>
						<mxPoint x="450" y="390" as="targetPoint"/>
					</mxGeometry>
				</mxCell>
				<mxCell id="5750122448_5750122208" value="['body', 0]" style="endArrow=classic;html=1;" parent="1" source="5750122448" target="5750122208" edge="1">
					<mxGeometry width="50" height="50" relative="1" as="geometry">
						<mxPoint x="400" y="440" as="sourcePoint"/>
						<mxPoint x="450" y="390" as="targetPoint"/>
					</mxGeometry>
				</mxCell>
				<mxCell id="5750122208_5750122016" value="['targets', 0]" style="endArrow=classic;html=1;" parent="1" source="5750122208" target="5750122016" edge="1">
					<mxGeometry width="50" height="50" relative="1" as="geometry">
						<mxPoint x="400" y="440" as="sourcePoint"/>
						<mxPoint x="450" y="390" as="targetPoint"/>
					</mxGeometry>
				</mxCell>
				<mxCell id="5750122016_5750121872" value="['ctx']" style="endArrow=classic;html=1;" parent="1" source="5750122016" target="5750121872" edge="1">
					<mxGeometry width="50" height="50" relative="1" as="geometry">
						<mxPoint x="400" y="440" as="sourcePoint"/>
						<mxPoint x="450" y="390" as="targetPoint"/>
					</mxGeometry>
				</mxCell>
				<mxCell id="5750122208_5750122112" value="['value']" style="endArrow=classic;html=1;" parent="1" source="5750122208" target="5750122112" edge="1">
					<mxGeometry width="50" height="50" relative="1" as="geometry">
						<mxPoint x="400" y="440" as="sourcePoint"/>
						<mxPoint x="450" y="390" as="targetPoint"/>
					</mxGeometry>
				</mxCell>
				<mxCell id="5750122448_5750697184" value="['body', 1]" style="endArrow=classic;html=1;" parent="1" source="5750122448" target="5750697184" edge="1">
					<mxGeometry width="50" height="50" relative="1" as="geometry">
						<mxPoint x="400" y="440" as="sourcePoint"/>
						<mxPoint x="450" y="390" as="targetPoint"/>
					</mxGeometry>
				</mxCell>
				<mxCell id="5750697184_5750697232" value="['args']" style="endArrow=classic;html=1;" parent="1" source="5750697184" target="5750697232" edge="1">
					<mxGeometry width="50" height="50" relative="1" as="geometry">
						<mxPoint x="400" y="440" as="sourcePoint"/>
						<mxPoint x="450" y="390" as="targetPoint"/>
					</mxGeometry>
				</mxCell>
				<mxCell id="5750697232_5750697136" value="['args', 0]" style="endArrow=classic;html=1;" parent="1" source="5750697232" target="5750697136" edge="1">
					<mxGeometry width="50" height="50" relative="1" as="geometry">
						<mxPoint x="400" y="440" as="sourcePoint"/>
						<mxPoint x="450" y="390" as="targetPoint"/>
					</mxGeometry>
				</mxCell>
				<mxCell id="5750697184_5750122064" value="['body', 0]" style="endArrow=classic;html=1;" parent="1" source="5750697184" target="5750122064" edge="1">
					<mxGeometry width="50" height="50" relative="1" as="geometry">
						<mxPoint x="400" y="440" as="sourcePoint"/>
						<mxPoint x="450" y="390" as="targetPoint"/>
					</mxGeometry>
				</mxCell>
				<mxCell id="5750122064_5750121776" value="['targets', 0]" style="endArrow=classic;html=1;" parent="1" source="5750122064" target="5750121776" edge="1">
					<mxGeometry width="50" height="50" relative="1" as="geometry">
						<mxPoint x="400" y="440" as="sourcePoint"/>
						<mxPoint x="450" y="390" as="targetPoint"/>
					</mxGeometry>
				</mxCell>
				<mxCell id="5750121776_5750121872" value="['ctx']" style="endArrow=classic;html=1;" parent="1" source="5750121776" target="5750121872" edge="1">
					<mxGeometry width="50" height="50" relative="1" as="geometry">
						<mxPoint x="400" y="440" as="sourcePoint"/>
						<mxPoint x="450" y="390" as="targetPoint"/>
					</mxGeometry>
				</mxCell>
				<mxCell id="5750122064_5750121920" value="['value']" style="endArrow=classic;html=1;" parent="1" source="5750122064" target="5750121920" edge="1">
					<mxGeometry width="50" height="50" relative="1" as="geometry">
						<mxPoint x="400" y="440" as="sourcePoint"/>
						<mxPoint x="450" y="390" as="targetPoint"/>
					</mxGeometry>
				</mxCell>
				<mxCell id="5750697184_5750121968" value="['body', 1]" style="endArrow=classic;html=1;" parent="1" source="5750697184" target="5750121968" edge="1">
					<mxGeometry width="50" height="50" relative="1" as="geometry">
						<mxPoint x="400" y="440" as="sourcePoint"/>
						<mxPoint x="450" y="390" as="targetPoint"/>
					</mxGeometry>
				</mxCell>
				<mxCell id="5750121968_5750121584" value="['targets', 0]" style="endArrow=classic;html=1;" parent="1" source="5750121968" target="5750121584" edge="1">
					<mxGeometry width="50" height="50" relative="1" as="geometry">
						<mxPoint x="400" y="440" as="sourcePoint"/>
						<mxPoint x="450" y="390" as="targetPoint"/>
					</mxGeometry>
				</mxCell>
				<mxCell id="5750121584_5750121872" value="['ctx']" style="endArrow=classic;html=1;" parent="1" source="5750121584" target="5750121872" edge="1">
					<mxGeometry width="50" height="50" relative="1" as="geometry">
						<mxPoint x="400" y="440" as="sourcePoint"/>
						<mxPoint x="450" y="390" as="targetPoint"/>
					</mxGeometry>
				</mxCell>
				<mxCell id="5750121968_5750121824" value="['value']" style="endArrow=classic;html=1;" parent="1" source="5750121968" target="5750121824" edge="1">
					<mxGeometry width="50" height="50" relative="1" as="geometry">
						<mxPoint x="400" y="440" as="sourcePoint"/>
						<mxPoint x="450" y="390" as="targetPoint"/>
					</mxGeometry>
				</mxCell>
				<mxCell id="5750121824_5750121248" value="['left']" style="endArrow=classic;html=1;" parent="1" source="5750121824" target="5750121248" edge="1">
					<mxGeometry width="50" height="50" relative="1" as="geometry">
						<mxPoint x="400" y="440" as="sourcePoint"/>
						<mxPoint x="450" y="390" as="targetPoint"/>
					</mxGeometry>
				</mxCell>
				<mxCell id="5750121248_5750121200" value="['ctx']" style="endArrow=classic;html=1;" parent="1" source="5750121248" target="5750121200" edge="1">
					<mxGeometry width="50" height="50" relative="1" as="geometry">
						<mxPoint x="400" y="440" as="sourcePoint"/>
						<mxPoint x="450" y="390" as="targetPoint"/>
					</mxGeometry>
				</mxCell>
				<mxCell id="5750121824_5750127104" value="['op']" style="endArrow=classic;html=1;" parent="1" source="5750121824" target="5750127104" edge="1">
					<mxGeometry width="50" height="50" relative="1" as="geometry">
						<mxPoint x="400" y="440" as="sourcePoint"/>
						<mxPoint x="450" y="390" as="targetPoint"/>
					</mxGeometry>
				</mxCell>
				<mxCell id="5750121824_5750121296" value="['right']" style="endArrow=classic;html=1;" parent="1" source="5750121824" target="5750121296" edge="1">
					<mxGeometry width="50" height="50" relative="1" as="geometry">
						<mxPoint x="400" y="440" as="sourcePoint"/>
						<mxPoint x="450" y="390" as="targetPoint"/>
					</mxGeometry>
				</mxCell>
				<mxCell id="5750121296_5750121200" value="['ctx']" style="endArrow=classic;html=1;" parent="1" source="5750121296" target="5750121200" edge="1">
					<mxGeometry width="50" height="50" relative="1" as="geometry">
						<mxPoint x="400" y="440" as="sourcePoint"/>
						<mxPoint x="450" y="390" as="targetPoint"/>
					</mxGeometry>
				</mxCell>
				<mxCell id="5750697184_5750697520" value="['body', 2]" style="endArrow=classic;html=1;" parent="1" source="5750697184" target="5750697520" edge="1">
					<mxGeometry width="50" height="50" relative="1" as="geometry">
						<mxPoint x="400" y="440" as="sourcePoint"/>
						<mxPoint x="450" y="390" as="targetPoint"/>
					</mxGeometry>
				</mxCell>
				<mxCell id="5750697520_5750697472" value="['value']" style="endArrow=classic;html=1;" parent="1" source="5750697520" target="5750697472" edge="1">
					<mxGeometry width="50" height="50" relative="1" as="geometry">
						<mxPoint x="400" y="440" as="sourcePoint"/>
						<mxPoint x="450" y="390" as="targetPoint"/>
					</mxGeometry>
				</mxCell>
				<mxCell id="5750697472_5750121200" value="['ctx']" style="endArrow=classic;html=1;" parent="1" source="5750697472" target="5750121200" edge="1">
					<mxGeometry width="50" height="50" relative="1" as="geometry">
						<mxPoint x="400" y="440" as="sourcePoint"/>
						<mxPoint x="450" y="390" as="targetPoint"/>
					</mxGeometry>
				</mxCell>
				<mxCell id="5750122448_5750697616" value="['body', 2]" style="endArrow=classic;html=1;" parent="1" source="5750122448" target="5750697616" edge="1">
					<mxGeometry width="50" height="50" relative="1" as="geometry">
						<mxPoint x="400" y="440" as="sourcePoint"/>
						<mxPoint x="450" y="390" as="targetPoint"/>
					</mxGeometry>
				</mxCell>
				<mxCell id="5750697616_5750697568" value="['targets', 0]" style="endArrow=classic;html=1;" parent="1" source="5750697616" target="5750697568" edge="1">
					<mxGeometry width="50" height="50" relative="1" as="geometry">
						<mxPoint x="400" y="440" as="sourcePoint"/>
						<mxPoint x="450" y="390" as="targetPoint"/>
					</mxGeometry>
				</mxCell>
				<mxCell id="5750697568_5750121872" value="['ctx']" style="endArrow=classic;html=1;" parent="1" source="5750697568" target="5750121872" edge="1">
					<mxGeometry width="50" height="50" relative="1" as="geometry">
						<mxPoint x="400" y="440" as="sourcePoint"/>
						<mxPoint x="450" y="390" as="targetPoint"/>
					</mxGeometry>
				</mxCell>
				<mxCell id="5750697616_5750697088" value="['value']" style="endArrow=classic;html=1;" parent="1" source="5750697616" target="5750697088" edge="1">
					<mxGeometry width="50" height="50" relative="1" as="geometry">
						<mxPoint x="400" y="440" as="sourcePoint"/>
						<mxPoint x="450" y="390" as="targetPoint"/>
					</mxGeometry>
				</mxCell>
				<mxCell id="5750697088_5750697040" value="['func']" style="endArrow=classic;html=1;" parent="1" source="5750697088" target="5750697040" edge="1">
					<mxGeometry width="50" height="50" relative="1" as="geometry">
						<mxPoint x="400" y="440" as="sourcePoint"/>
						<mxPoint x="450" y="390" as="targetPoint"/>
					</mxGeometry>
				</mxCell>
				<mxCell id="5750697040_5750121200" value="['ctx']" style="endArrow=classic;html=1;" parent="1" source="5750697040" target="5750121200" edge="1">
					<mxGeometry width="50" height="50" relative="1" as="geometry">
						<mxPoint x="400" y="440" as="sourcePoint"/>
						<mxPoint x="450" y="390" as="targetPoint"/>
					</mxGeometry>
				</mxCell>
				<mxCell id="5750697088_5750697424" value="['args', 0]" style="endArrow=classic;html=1;" parent="1" source="5750697088" target="5750697424" edge="1">
					<mxGeometry width="50" height="50" relative="1" as="geometry">
						<mxPoint x="400" y="440" as="sourcePoint"/>
						<mxPoint x="450" y="390" as="targetPoint"/>
					</mxGeometry>
				</mxCell>
				<mxCell id="5750697424_5750121200" value="['ctx']" style="endArrow=classic;html=1;" parent="1" source="5750697424" target="5750121200" edge="1">
					<mxGeometry width="50" height="50" relative="1" as="geometry">
						<mxPoint x="400" y="440" as="sourcePoint"/>
						<mxPoint x="450" y="390" as="targetPoint"/>
					</mxGeometry>
				</mxCell>
				<mxCell id="5750122448_5750121536" value="['body', 3]" style="endArrow=classic;html=1;" parent="1" source="5750122448" target="5750121536" edge="1">
					<mxGeometry width="50" height="50" relative="1" as="geometry">
						<mxPoint x="400" y="440" as="sourcePoint"/>
						<mxPoint x="450" y="390" as="targetPoint"/>
					</mxGeometry>
				</mxCell>
				<mxCell id="5750121536_5750121440" value="['value']" style="endArrow=classic;html=1;" parent="1" source="5750121536" target="5750121440" edge="1">
					<mxGeometry width="50" height="50" relative="1" as="geometry">
						<mxPoint x="400" y="440" as="sourcePoint"/>
						<mxPoint x="450" y="390" as="targetPoint"/>
					</mxGeometry>
				</mxCell>
				<mxCell id="5750121440_5750121200" value="['ctx']" style="endArrow=classic;html=1;" parent="1" source="5750121440" target="5750121200" edge="1">
					<mxGeometry width="50" height="50" relative="1" as="geometry">
						<mxPoint x="400" y="440" as="sourcePoint"/>
						<mxPoint x="450" y="390" as="targetPoint"/>
					</mxGeometry>
				</mxCell>
			</root>
		</mxGraphModel>
	</diagram>
</mxfile>
